<svg viewBox="0 0 183 70" xmlns="http://www.w3.org/2000/svg" xmlns:xlink="http://www.w3.org/1999/xlink">
  <defs>
    <path id="a" d="M0 .19h30.63V29.1H0z"/>
  </defs>
  <g fill="none" fill-rule="evenodd">
    <path d="M45.22 54.84c-1.52 0-2.54-.05-2.79-.25s-.35-.6-.35-1.35v-8c0-1.44.25-1.5 2.38-1.5 3.44 0 5.82 2.3 5.82 5.85 0 2.75-1.52 5.25-5.06 5.25m14.53 11.23c-1.98-1.5-4.46-4.74-7.14-9.14-.5-.8-.46-1.25.05-1.5 2.38-1 4.86-2.8 4.86-6.29 0-3.04-1.72-5.14-4.35-6.4-2.38-1.04-5.42-1.34-9.52-1.34-4.61 0-9.02.2-11.4.35-.7.2-.6 1.6-.1 1.8l.76.1c2.13.4 2.38.6 2.38 5.64v12.19c0 4.1-.2 5-2.53 5.3l-1.27.1c-.5.39-.35 1.54.06 1.79 2.27-.1 4.65-.2 7.18-.2 2.38 0 4.81.05 7.04.2.46-.25.56-1.45.05-1.8l-1.26-.1c-2.33-.3-2.53-1.2-2.53-5.3v-3.74c0-.95.1-1.05 1.21-1.05 1.22 0 2.03.25 2.74 1.35.96 1.7 2.58 4.5 4.05 6.4 2.53 3.34 4.96 4.49 8.96 4.49 2.13 0 3.14-.1 3.85-.45.3-.2.3-1-.05-1.2-.86.05-1.93-.3-3.04-1.2M138.23 56.28a5.73 5.73 0 0 1-3.3-.3V45.35c0-1.7.41-1.75 2.84-1.75 2.9 0 5.47 2.25 5.47 5.84.05 3.95-1.92 6.3-5.01 6.84m8.15-13.38c-2.48-1.3-5.67-1.65-9.97-1.7-1.17 0-3.45.05-5.62.15-1.07.05-2.59.1-4.16.15-2.83.05-5.92.05-7.44.05h-.66c-1.82 0-3.24-.05-5.36-.2-.61.3-.61 1.4-.1 1.8l1.67.2c1.67.2 2.12 1 2.33 3.4.05.74.25 2.8.25 5.44v5.1c0 5.64-1.62 9.43-6.99 9.43-5.06 0-7.04-3.94-7.04-9.49v-8.69c0-4.04.2-4.94 2.48-5.24l1.27-.1c.5-.35.35-1.55-.05-1.8-2.23.1-4.6.2-6.99.2-2.48 0-4.86-.05-7.14-.2-.45.25-.55 1.4-.05 1.8l1.27.1c2.33.3 2.48 1.15 2.48 5.24v9.34c0 4.65 1.26 7.44 3.5 9.24 1.92 1.6 4.9 2.15 8.45 2.15 3.29 0 6.53-.95 8.56-2.75 1.97-1.85 3.03-5 3.03-8.94v-5.44a55.7 55.7 0 0 1 .3-6.5c.06-.14.1-.3.16-.5 0-.04.05-.1.05-.14.2-.5.56-.9 1.01-1.2.05-.05.1-.1.2-.1.06-.05.1-.05.2-.1.06 0 .06-.05.1-.05.11-.05.21-.1.31-.1.05 0 .05 0 .1-.05.05 0 .1-.05.16-.05h.05c.45-.1.96-.2 1.57-.2 2.22 0 3.39.9 3.74 2.2 0 0 .1.1.15.7v.15c.06.35.06.84.06 1.54v13.64c0 4.1-.2 5-2.54 5.3l-.96.1c-.5.4-.35 1.54.05 1.79a126.3 126.3 0 0 1 14.28 0c.46-.25.56-1.45.05-1.8l-1.57-.2c-2.33-.25-2.53-1.1-2.53-5.24v-4.15c.56.25 1.22.3 1.97.4 0 0 1.73.15 3.8 0 5.02-.2 9.93-2.35 9.93-7.74a7.72 7.72 0 0 0-4.36-6.94" fill="#fff"/>
    <g transform="translate(0 40.31)">
      <mask id="b" fill="#fff">
        <use xlink:href="#a"/>
      </mask>
      <path d="M30.23 16.27s.4-.45.4-1.05c0-.55-.35-.9-.4-1-1.57.1-3.04.15-4.71.15-2.84 0-5.22-.1-7.6-.25-.65.25-.7 1.5-.2 1.8l1.57.25c2.79.5 2.94.95 2.94 3.3v5.14c0 1.8-1.67 2.15-4.2 2.15-5.73 0-10.28-4.65-10.28-12.44 0-6.54 3.44-11.68 9.62-11.68 4.5 0 7.34 1.8 8.8 6.29.46.45 1.58.3 1.78-.2-.46-3.2-.66-5.9-.66-7.14-1.21-.3-5.47-1.4-9.47-1.4C12 .19 7 2.19 4.05 5.09A13.78 13.78 0 0 0 0 15.06c0 3.45 1.42 7.14 4 9.59 3.24 3 7.95 4.44 13.37 4.44 2.43 0 6.12-.4 9.16-.9l1.07-.14s1.21-.3 1.21-1.2c0-.9.05-3.55.05-3.55v-3.9c0-2.14.05-2.74 1.37-3.14" fill="#fff" mask="url(#b)"/>
    </g>
    <path d="M76.76 67.42c-6.13 0-8.66-6.44-8.66-12.78 0-8.2 4.2-11.2 7.8-11.2 5.92 0 8.66 6.05 8.66 13.24.05 7.6-3.44 10.74-7.8 10.74m-.15-26.37c-9.57 0-16.1 6.44-16.1 14.88 0 7.64 5.82 13.89 16.1 13.89 9.21 0 15.64-6.05 15.64-14.64C92.2 47.8 87 41.05 76.61 41.05M15.34 13.43c-1.52 0-2.53-.05-2.78-.25-.26-.2-.36-.6-.36-1.34v-8c0-1.44.26-1.5 2.38-1.5 3.45 0 5.77 2.3 5.77 5.85 0 2.75-1.46 5.24-5 5.24m14.47 11.24c-1.92-1.5-4.45-4.7-7.14-9.14-.5-.8-.45-1.25.05-1.5 2.38-1 4.87-2.8 4.87-6.29 0-3.05-1.73-5.14-4.36-6.4C20.86.3 17.87 0 13.77 0 9.17 0 4.76.2 2.33.4c-.66.15-.6 1.6-.1 1.8l.76.1c2.12.4 2.38.6 2.38 5.64v12.19c0 4.1-.2 4.99-2.53 5.29l-1.27.15c-.5.35-.35 1.55.05 1.8 2.28-.1 4.66-.2 7.19-.2 2.38 0 4.81.05 7.09.2.45-.25.56-1.45.05-1.8l-1.27-.1c-2.33-.3-2.53-1.2-2.53-5.3v-3.74c0-.95.1-1.05 1.22-1.05 1.21 0 2.02.25 2.73 1.35.96 1.7 2.58 4.5 4.05 6.4 2.53 3.34 4.96 4.49 8.96 4.49 2.13 0 3.14-.1 3.85-.45.3-.2.3-1-.05-1.2a5.66 5.66 0 0 1-3.09-1.3M61.37.25c-2.38.1-3.55.2-5.37.2-1.82 0-3.24-.05-5.37-.2-.6.3-.6 1.4-.1 1.8l1.67.2c1.67.2 2.13 1 2.33 3.4.05.74.26 2.74.26 5.44v5.1c0 5.63-1.62 9.43-7 9.43-5.05 0-7.03-3.95-7.03-9.49V7.4c0-4.04.2-4.94 2.48-5.24l1.27-.1c.5-.35.35-1.55-.05-1.8-2.23.1-4.61.2-7 .2-2.47 0-4.85-.05-7.13-.2-.46.25-.56 1.4-.05 1.8l1.27.1c2.22.35 2.43 1.2 2.43 5.24v9.34c0 4.64 1.26 7.44 3.49 9.24 1.92 1.6 5.32 2.15 8.86 2.15 3.3 0 6.18-.95 8.15-2.8 1.98-1.85 3.04-5 3.04-8.94v-5.34c0-2.65.1-4.7.2-5.5.1-2.2.56-3 2.33-3.34l1.42-.2c.6-.3.46-1.5-.1-1.75M130.74 20.23c-1.47 3.3-2.54 4.6-7.65 4.6-3.9 0-5.37-.3-5.92-.96-.56-.7-.71-2.35-.71-4.24v-3.85c0-1.2.05-1.25 1.47-1.25h2.33c3.49 0 4.05.05 4.55 1.95l.36 1.5c.4.35 1.47.3 1.77-.1-.05-1.45-.2-3-.2-4.65 0-1.54.15-3.1.2-4.54-.3-.45-1.37-.5-1.77-.1l-.36 1.5c-.5 1.85-1.06 1.95-4.55 1.95h-2.33c-1.37-.05-1.47-.05-1.47-1.1v-5.2c0-3 .05-3.14 1.62-3.14h3.34c3.09 0 4.7.25 5.47 1.5.35.64.76 1.54 1.11 2.6.46.34 1.52.3 1.77-.2-.1-2.85-.45-5.75-.6-6.5-.56.1-3.1.2-5.88.2h-10.12c-2.54 0-4.92-.05-6.69-.2-.45.25-.55 1.45-.05 1.8l.76.1c2.33.3 2.53 1.2 2.53 5.3v12.93c0 4.1-.2 4.99-2.53 5.24l-1.97.2c-.5.4-.4 1.55.05 1.8 2.93-.1 5.36-.2 7.9-.2h6.73c3.4.05 6.74.05 10.73.2.56-1.2 1.32-4.3 1.88-6.9-.46-.44-1.32-.44-1.77-.24M181.12 20.03c-1.88 4.5-2.89 4.8-7.7 4.8-3.5 0-4.46-.46-4.96-.96-.6-.75-.76-2.6-.76-4.54V7.19c0-4.1.2-5 2.53-5.3l1.27-.1c.5-.34.4-1.54-.05-1.79-2.28.1-4.66.2-7.1.2-2.52 0-4.9-.05-7.39-.2-.45.25-.55 1.45-.05 1.8l1.47.2c2.33.25 2.53 1.15 2.53 5.24v12.79c-.05.8-.25 3.34-1 5.24l-.11.2c-.7 1.65.15 1.75.66 1.75h.6c1.07 0 2.18-.05 3.3-.05h6.33c3.09 0 6.93.05 10.38.2.76-1.55 1.57-4.8 1.82-7.1-.36-.5-1.27-.54-1.77-.24" fill="#fff"/>
    <path d="M157.52 20.03c-1.87 4.5-2.88 4.8-7.7 4.8-3.49 0-4.45-.46-5-.96-.61-.75-.77-2.6-.77-4.54V7.19c0-4.1.2-5 2.53-5.3l1.27-.1c.5-.34.4-1.54-.05-1.79-2.28.1-4.66.2-7.04.2-2.53 0-4.91-.05-7.4-.2-.45.25-.55 1.45-.04 1.8l1.42.2c2.33.25 2.53 1.15 2.53 5.24v12.94c0 4.1-.2 4.99-2.53 5.29l-1.27.1c-.5.4-.4 1.55.05 1.8 2.28-.1 4.66-.2 7.2-.2h6.32c3.09 0 6.94.05 10.38.2.76-1.55 1.57-4.8 1.82-7.1-.35-.5-1.21-.54-1.72-.24M79.4 1.15c.5 1.3.9 3.7 1.06 6.2-.36.54-1.32.64-1.72.24-1.17-3.54-3.35-5.24-6.28-5.24-2.59 0-4.26 1.5-4.26 3.64 0 2.45 2.28 3.7 4.97 4.8 4.2 1.7 8.2 4.1 8.2 9.24.05 5.54-5.12 8.09-11.09 8.09-3.6 0-6.48-.85-8.15-2.2-.91-1.7-1.22-4.35-1.12-6.9.3-.5 1.32-.64 1.73-.1 1.1 3.7 3.9 6.9 8.05 6.9 2.48 0 4.3-1.4 4.3-3.65 0-2.84-2.18-4.54-5.11-5.79-3.95-1.6-7.7-4.1-7.7-8.44C62.28 2.9 66.68 0 72.91 0c2.84.05 4.86.7 6.48 1.15M101.93 1.15c.5 1.3.9 3.7 1.06 6.2-.36.54-1.32.64-1.72.24-1.17-3.54-3.34-5.24-6.28-5.24-2.58 0-4.25 1.5-4.25 3.64 0 2.45 2.27 3.7 4.96 4.8 4.2 1.7 8.2 4.1 8.2 9.24.05 5.54-5.11 8.09-11.14 8.09-3.6 0-6.48-.85-8.15-2.2-.91-1.7-1.22-4.35-1.11-6.9.3-.5 1.31-.64 1.72-.1 1.11 3.7 3.9 6.9 8.05 6.9 2.48 0 4.3-1.4 4.3-3.65 0-2.84-2.18-4.54-5.11-5.79-3.95-1.6-7.7-4.1-7.7-8.44C84.76 2.9 89.16 0 95.4 0c2.89.05 4.92.7 6.54 1.15" fill="#fff"/>
  </g>
</svg>

